<svg xmlns="http://www.w3.org/2000/svg" width="16" height="17" viewBox="0 0 16 17" fill="none">
<g clip-path="url(#clip0_25_280)">
<path fill-rule="evenodd" clip-rule="evenodd" d="M12.2424 15.1667C11.3297 15.1667 10.5348 13.7795 10.1212 11.73C9.70767 13.7795 8.91273 15.1667 8 15.1667C7.08727 15.1667 6.29233 13.7795 5.8788 11.73C5.46523 13.7795 4.6703 15.1667 3.75757 15.1667C2.4187 15.1667 1.33333 12.1819 1.33333 8.5C1.33333 4.8181 2.4187 1.83333 3.75757 1.83333C4.6703 1.83333 5.46523 3.22048 5.8788 5.27C6.29233 3.22048 7.08727 1.83333 8 1.83333C8.91273 1.83333 9.70767 3.22048 10.1212 5.27C10.5348 3.22048 11.3297 1.83333 12.2424 1.83333C13.5813 1.83333 14.6667 4.8181 14.6667 8.5C14.6667 12.1819 13.5813 15.1667 12.2424 15.1667Z" fill="#243647"/>
</g>
<defs fill="#7e0909">
<clipPath id="clip0_25_280" fill="#7e0909">
<rect width="16" height="16" fill="#243647" transform="translate(0 0.5)"/>
</clipPath>
</defs>
</svg>