<svg width="40" height="40" viewBox="0 0 40 40" fill="none" xmlns="http://www.w3.org/2000/svg">
<path d="M30.5953 21.2141C30.6497 27.0891 35.7497 29.0444 35.806 29.0694C35.7628 29.2069 34.9913 31.8556 33.1194 34.5909C31.5013 36.9559 29.8216 39.3122 27.1763 39.3616C24.5769 39.4091 23.741 37.8197 20.7688 37.8197C17.7975 37.8197 16.8691 39.3122 14.4081 39.4091C11.8544 39.5059 9.90971 36.8513 8.27814 34.4953C4.94439 29.6753 2.39658 20.875 5.81752 14.9347C7.51689 11.9847 10.5544 10.1169 13.851 10.0688C16.3585 10.0209 18.7253 11.7556 20.2581 11.7556C21.79 11.7556 24.6663 9.66938 27.69 9.97563C28.956 10.0284 32.5091 10.4869 34.7906 13.8269C34.6072 13.9409 30.5513 16.3022 30.5953 21.2141ZM25.71 6.78719C27.0656 5.14625 27.9781 2.86125 27.7294 0.58844C25.775 0.666877 23.4119 1.89063 22.0103 3.53094C20.7541 4.98313 19.6541 7.30813 19.9506 9.53594C22.1291 9.70469 24.3541 8.42907 25.71 6.78719Z" fill="black"/>
</svg>
