<svg width="32" height="32" viewBox="0 0 32 32" fill="none" xmlns="http://www.w3.org/2000/svg">
<g clip-path="url(#clip0_25_350)">
<path fill-rule="evenodd" clip-rule="evenodd" d="M19.3188 15.0391C20.3287 14.0669 20.6471 12.5789 20.1236 11.2786C19.6 9.97825 18.3393 9.12609 16.9375 9.125H11.625C11.2798 9.125 11 9.40482 11 9.75V21.625C11 21.9702 11.2798 22.25 11.625 22.25H17.875C19.6623 22.25 21.2011 20.9887 21.552 19.2362C21.9029 17.4837 20.9682 15.7272 19.3188 15.0391ZM12.25 10.375H16.9375C18.1456 10.375 19.125 11.3544 19.125 12.5625C19.125 13.7706 18.1456 14.75 16.9375 14.75H12.25V10.375ZM17.875 21H12.25V16H17.875C19.2557 16 20.375 17.1193 20.375 18.5C20.375 19.8807 19.2557 21 17.875 21Z" fill="#94ADC7"/>
</g>
<defs>
<clipPath id="clip0_25_350">
<rect width="20" height="20" fill="white" transform="translate(6 6)"/>
</clipPath>
</defs>
</svg>
