<svg width="21" height="21" viewBox="0 0 21 21" fill="none" xmlns="http://www.w3.org/2000/svg">
<path d="M10.5 0.5C12.0101 0.500873 13.5005 0.843757 14.8592 1.50292C16.2178 2.16209 17.4096 3.12041 18.345 4.30598C19.2803 5.49155 19.9351 6.87358 20.26 8.34835C20.5849 9.82311 20.5716 11.3523 20.2211 12.8212C19.8706 14.2901 19.1919 15.6605 18.236 16.8296C17.2802 17.9988 16.0719 18.9362 14.702 19.5716C13.332 20.2071 11.836 20.524 10.326 20.4986C8.81611 20.4732 7.33155 20.1061 5.98375 19.425L5.8325 19.3438L1.27625 20.4813C1.18856 20.5033 1.09714 20.5061 1.00828 20.4893C0.919424 20.4726 0.835252 20.4368 0.761573 20.3844C0.687894 20.332 0.626464 20.2642 0.58152 20.1858C0.536576 20.1073 0.509189 20.0201 0.50125 19.93V19.8275L0.51875 19.7237L1.65625 15.1687L1.5775 15.0187C1.0069 13.8921 0.654862 12.6676 0.54 11.41L0.50875 10.9325L0.5 10.5C0.5 7.84784 1.55357 5.3043 3.42893 3.42893C5.3043 1.55357 7.84784 0.5 10.5 0.5ZM11.125 11.75H7.375L7.2625 11.76C7.1184 11.7861 6.98803 11.862 6.89416 11.9744C6.80028 12.0868 6.74886 12.2286 6.74886 12.375C6.74886 12.5214 6.80028 12.6632 6.89416 12.7756C6.98803 12.888 7.1184 12.9639 7.2625 12.99L7.375 13H11.125L11.2375 12.99C11.3816 12.9639 11.512 12.888 11.6058 12.7756C11.6997 12.6632 11.7511 12.5214 11.7511 12.375C11.7511 12.2286 11.6997 12.0868 11.6058 11.9744C11.512 11.862 11.3816 11.7861 11.2375 11.76L11.125 11.75ZM13.625 8H7.375L7.2625 8.01C7.1184 8.03609 6.98803 8.11196 6.89416 8.22436C6.80028 8.33676 6.74886 8.47855 6.74886 8.625C6.74886 8.77145 6.80028 8.91324 6.89416 9.02564C6.98803 9.13804 7.1184 9.21391 7.2625 9.24L7.375 9.25H13.625L13.7375 9.24C13.8816 9.21391 14.012 9.13804 14.1058 9.02564C14.1997 8.91324 14.2511 8.77145 14.2511 8.625C14.2511 8.47855 14.1997 8.33676 14.1058 8.22436C14.012 8.11196 13.8816 8.03609 13.7375 8.01L13.625 8Z" fill="#243647"/>
</svg>
