<svg width="30" height="30" viewBox="0 0 30 30" fill="none" xmlns="http://www.w3.org/2000/svg">
<g clip-path="url(#clip0_269_425)">
<path d="M15.0833 9.16675C11.8333 9.16675 9.25 11.7501 9.25 15.0001C9.25 18.2501 11.8333 20.8334 15.0833 20.8334C18.3333 20.8334 20.9167 18.2501 20.9167 15.0001C20.9167 11.7501 18.3333 9.16675 15.0833 9.16675ZM15.0833 19.1667C12.75 19.1667 10.9167 17.3334 10.9167 15.0001C10.9167 12.6667 12.75 10.8334 15.0833 10.8334C17.4167 10.8334 19.25 12.6667 19.25 15.0001C19.25 17.3334 17.4167 19.1667 15.0833 19.1667Z" fill="#243647"/>
<path d="M27.3334 12.2501L25 11.5001L24.5 10.2501L25.6667 8.08341C25.9167 7.58341 25.8334 6.91675 25.4167 6.50008L23.4167 4.50008C23 4.08341 22.3334 4.00008 21.8334 4.25008L19.6667 5.41675L18.4167 4.91675L17.6667 2.58341C17.5 2.08341 17 1.66675 16.4167 1.66675H13.5834C13 1.66675 12.5 2.08341 12.4167 2.66675L11.6667 5.00008C11.1667 5.08341 10.75 5.25008 10.3334 5.50008L8.16669 4.33341C7.66669 4.08341 7.00002 4.16675 6.58335 4.58341L4.58335 6.58341C4.16669 7.00008 4.08335 7.66675 4.33335 8.16675L5.41669 10.2501C5.25002 10.6667 5.08335 11.1667 4.91669 11.5834L2.58335 12.3334C2.08335 12.5001 1.66669 13.0001 1.66669 13.5834V16.4167C1.66669 17.0001 2.08335 17.5001 2.66669 17.6667L5.00002 18.4167L5.50002 19.6667L4.33335 21.8334C4.08335 22.3334 4.16669 23.0001 4.58335 23.4167L6.58335 25.4167C7.00002 25.8334 7.66669 25.9167 8.16669 25.6667L10.3334 24.5001L11.5834 25.0001L12.3334 27.4167C12.5 27.9167 13 28.3334 13.5834 28.3334H16.4167C17 28.3334 17.5 27.9167 17.6667 27.4167L18.4167 25.0001L19.6667 24.5001L21.8334 25.6667C22.3334 25.9167 23 25.8334 23.4167 25.4167L25.4167 23.4167C25.8334 23.0001 25.9167 22.3334 25.6667 21.8334L24.5 19.6667L25 18.4167L27.4167 17.6667C27.9167 17.5001 28.3334 17.0001 28.3334 16.4167V13.5834C28.3334 13.0001 27.9167 12.4167 27.3334 12.2501ZM26.6667 16.1667L23.6667 17.0834L23.5834 17.5001L22.8334 19.2501L22.5834 19.6667L24.0834 22.4167L22.4167 24.0834L19.6667 22.5834L19.25 22.8334C18.6667 23.1667 18.0834 23.4167 17.5 23.5834L17.0834 23.6667L16.1667 26.6667H13.8334L12.9167 23.6667L12.5 23.5834L10.75 22.8334L10.3334 22.5834L7.58335 24.0834L5.91669 22.4167L7.41669 19.6667L7.16669 19.2501C6.83335 18.6667 6.58335 18.0834 6.41669 17.5001L6.33335 17.0834L3.33335 16.1667V13.8334L6.16669 13.0001L6.33335 12.5834C6.50002 11.9167 6.75002 11.3334 7.08335 10.7501L7.33335 10.3334L5.91669 7.58342L7.58335 5.91675L10.25 7.41675L10.6667 7.16675C11.25 6.83342 11.8334 6.58341 12.5 6.41675L12.9167 6.25008L13.8334 3.33341H16.1667L17.0834 6.25008L17.5 6.41675C18.0834 6.58341 18.6667 6.83342 19.25 7.16675L19.6667 7.41675L22.4167 5.91675L24.0834 7.58342L22.5834 10.3334L22.8334 10.7501C23.1667 11.3334 23.4167 11.9167 23.5834 12.5001L23.6667 12.9167L26.6667 13.8334V16.1667Z" fill="#243647"/>
</g>
<defs>
<clipPath id="clip0_269_425">
<rect width="30" height="30" fill="white"/>
</clipPath>
</defs>
</svg>
