<svg width="20" height="21" viewBox="0 0 20 21" fill="none" xmlns="http://www.w3.org/2000/svg">
<g clip-path="url(#clip0_25_308)">
<path fill-rule="evenodd" clip-rule="evenodd" d="M10 2.375C7.14664 2.37438 4.50207 3.87055 3.03295 6.31664C1.56382 8.76273 1.48548 11.8002 2.82656 14.3188L1.93984 16.9789C1.79004 17.4281 1.90692 17.9234 2.24176 18.2582C2.57659 18.5931 3.07189 18.71 3.52109 18.5602L6.18125 17.6734C9.16615 19.261 12.8222 18.8344 15.3614 16.6021C17.9005 14.3698 18.7919 10.7985 17.5997 7.63486C16.4075 4.47119 13.3808 2.37639 10 2.375ZM10 17.375C8.79139 17.3758 7.60398 17.0575 6.55781 16.4523C6.40287 16.3625 6.21682 16.3434 6.04688 16.4L3.125 17.375L4.09922 14.4531C4.15603 14.2833 4.13725 14.0972 4.04766 13.9422C2.4895 11.2483 2.93527 7.84366 5.13444 5.64171C7.33361 3.43976 10.7377 2.98969 13.4335 4.54444C16.1294 6.09919 17.4447 9.27098 16.6402 12.2773C15.8357 15.2835 13.1121 17.3745 10 17.375Z" fill="white"/>
</g>
<defs>
<clipPath id="clip0_25_308">
<rect width="20" height="20" fill="white" transform="translate(0 0.5)"/>
</clipPath>
</defs>
</svg>
