<svg width="20" height="21" viewBox="0 0 20 21" fill="none" xmlns="http://www.w3.org/2000/svg">
<path fill-rule="evenodd" clip-rule="evenodd" d="M10 0.90625C6.57597 0.905503 3.40249 2.70091 1.63954 5.63622C-0.123413 8.57152 -0.217421 12.2165 1.39188 15.2388L0.327812 18.4309C0.148045 18.97 0.288308 19.5643 0.69011 19.9661C1.09191 20.3679 1.68626 20.5082 2.22531 20.3284L5.4175 19.2644C8.99938 21.1695 13.3867 20.6575 16.4336 17.9788C19.4806 15.3001 20.5503 11.0145 19.1197 7.21808C17.689 3.42168 14.057 0.907914 10 0.90625ZM10 18.9062C8.54967 18.9072 7.12478 18.5253 5.86938 17.7991C5.68344 17.6912 5.46018 17.6684 5.25625 17.7362L1.75 18.9062L2.91906 15.4C2.98723 15.1962 2.9647 14.9729 2.85719 14.7869C0.987404 11.5542 1.52233 7.46865 4.16133 4.8263C6.80034 2.18397 10.8852 1.64388 14.1202 3.50958C17.3553 5.37528 18.9336 9.18142 17.9682 12.789C17.0028 16.3965 13.7345 18.9056 10 18.9062Z" fill="#94ADC7"/>
</svg>
