<svg width="32" height="32" viewBox="0 0 32 32" fill="none" xmlns="http://www.w3.org/2000/svg">
<g clip-path="url(#clip0_25_345)">
<path fill-rule="evenodd" clip-rule="evenodd" d="M16 7.875C11.5127 7.875 7.875 11.5127 7.875 16C7.875 20.4873 11.5127 24.125 16 24.125C20.4873 24.125 24.125 20.4873 24.125 16C24.1203 11.5146 20.4853 7.87974 16 7.875ZM16 22.875C12.203 22.875 9.125 19.797 9.125 16C9.125 12.203 12.203 9.125 16 9.125C19.797 9.125 22.875 12.203 22.875 16C22.8707 19.7952 19.7952 22.8707 16 22.875ZM12.25 14.4375C12.25 13.9197 12.6697 13.5 13.1875 13.5C13.7053 13.5 14.125 13.9197 14.125 14.4375C14.125 14.9553 13.7053 15.375 13.1875 15.375C12.6697 15.375 12.25 14.9553 12.25 14.4375ZM19.75 14.4375C19.75 14.9553 19.3303 15.375 18.8125 15.375C18.2947 15.375 17.875 14.9553 17.875 14.4375C17.875 13.9197 18.2947 13.5 18.8125 13.5C19.3303 13.5 19.75 13.9197 19.75 14.4375ZM19.6664 18.1875C18.8625 19.5773 17.5258 20.375 16 20.375C14.4742 20.375 13.1383 19.5781 12.3344 18.1875C12.2112 17.9938 12.2042 17.7481 12.3161 17.5476C12.4279 17.3471 12.6407 17.2242 12.8703 17.2273C13.0998 17.2304 13.3092 17.3591 13.4156 17.5625C13.9992 18.5711 14.9164 19.125 16 19.125C17.0836 19.125 18.0008 18.5703 18.5836 17.5625C18.7562 17.2635 19.1385 17.161 19.4375 17.3336C19.7365 17.5062 19.839 17.8885 19.6664 18.1875Z" fill="#94ADC7"/>
</g>
<defs>
<clipPath id="clip0_25_345">
<rect width="20" height="20" fill="white" transform="translate(6 6)"/>
</clipPath>
</defs>
</svg>
