<svg width="20" height="21" viewBox="0 0 20 21" fill="none" xmlns="http://www.w3.org/2000/svg">
<g clip-path="url(#clip0_25_298)">
<path fill-rule="evenodd" clip-rule="evenodd" d="M10 2.375C5.51269 2.375 1.875 6.01269 1.875 10.5C1.875 14.9873 5.51269 18.625 10 18.625C14.4873 18.625 18.125 14.9873 18.125 10.5C18.1203 6.01465 14.4853 2.37974 10 2.375ZM10 17.375C6.20304 17.375 3.125 14.297 3.125 10.5C3.125 6.70304 6.20304 3.625 10 3.625C13.797 3.625 16.875 6.70304 16.875 10.5C16.8707 14.2952 13.7952 17.3707 10 17.375ZM13.4703 6.19063L8.47031 8.69063C8.34943 8.75135 8.25135 8.84943 8.19063 8.97031L5.69063 13.9703C5.59364 14.1641 5.60398 14.3944 5.71796 14.5787C5.83194 14.763 6.03327 14.8752 6.25 14.875C6.34703 14.8749 6.44272 14.8524 6.52969 14.8094L11.5297 12.3094C11.6506 12.2487 11.7487 12.1506 11.8094 12.0297L14.3094 7.02969C14.4303 6.78891 14.3834 6.4977 14.1928 6.30716C14.0023 6.11662 13.7111 6.06965 13.4703 6.19063ZM10.7812 11.2812L7.64766 12.8523L9.21875 9.71875L12.3555 8.15078L10.7812 11.2812Z" fill="white"/>
</g>
<defs>
<clipPath id="clip0_25_298">
<rect width="20" height="20" fill="white" transform="translate(0 0.5)"/>
</clipPath>
</defs>
</svg>
