<svg width="22" height="22" viewBox="0 0 22 22" fill="none" xmlns="http://www.w3.org/2000/svg">
<path d="M8.44646 11.7857C8.91533 11.7857 9.36499 11.972 9.69653 12.3035C10.0281 12.6351 10.2143 13.0847 10.2143 13.5536V17.875C10.2143 18.3439 10.0281 18.7936 9.69653 19.1251C9.36499 19.4566 8.91533 19.6429 8.44646 19.6429H4.12503C3.65617 19.6429 3.20651 19.4566 2.87497 19.1251C2.54343 18.7936 2.35718 18.3439 2.35718 17.875V13.5536C2.35718 13.0847 2.54343 12.6351 2.87497 12.3035C3.20651 11.972 3.65617 11.7857 4.12503 11.7857H8.44646ZM17.875 11.7857C18.3439 11.7857 18.7936 11.972 19.1251 12.3035C19.4566 12.6351 19.6429 13.0847 19.6429 13.5536V17.875C19.6429 18.3439 19.4566 18.7936 19.1251 19.1251C18.7936 19.4566 18.3439 19.6429 17.875 19.6429H13.5536C13.0847 19.6429 12.6351 19.4566 12.3035 19.1251C11.972 18.7936 11.7857 18.3439 11.7857 17.875V13.5536C11.7857 13.0847 11.972 12.6351 12.3035 12.3035C12.6351 11.972 13.0847 11.7857 13.5536 11.7857H17.875ZM8.44646 12.9643H4.12503C3.96875 12.9643 3.81886 13.0264 3.70835 13.1369C3.59783 13.2474 3.53575 13.3973 3.53575 13.5536V17.875C3.53575 18.2003 3.79975 18.4643 4.12503 18.4643H8.44646C8.60275 18.4643 8.75264 18.4022 8.86315 18.2917C8.97366 18.1812 9.03575 18.0313 9.03575 17.875V13.5536C9.03575 13.3973 8.97366 13.2474 8.86315 13.1369C8.75264 13.0264 8.60275 12.9643 8.44646 12.9643ZM17.875 12.9643H13.5536C13.3973 12.9643 13.2474 13.0264 13.1369 13.1369C13.0264 13.2474 12.9643 13.3973 12.9643 13.5536V17.875C12.9643 18.2003 13.2283 18.4643 13.5536 18.4643H17.875C18.0313 18.4643 18.1812 18.4022 18.2917 18.2917C18.4022 18.1812 18.4643 18.0313 18.4643 17.875V13.5536C18.4643 13.3973 18.4022 13.2474 18.2917 13.1369C18.1812 13.0264 18.0313 12.9643 17.875 12.9643ZM8.44646 2.35718C8.91533 2.35718 9.36499 2.54343 9.69653 2.87497C10.0281 3.20651 10.2143 3.65617 10.2143 4.12503V8.44646C10.2143 8.91533 10.0281 9.36499 9.69653 9.69653C9.36499 10.0281 8.91533 10.2143 8.44646 10.2143H4.12503C3.65617 10.2143 3.20651 10.0281 2.87497 9.69653C2.54343 9.36499 2.35718 8.91533 2.35718 8.44646V4.12503C2.35718 3.65617 2.54343 3.20651 2.87497 2.87497C3.20651 2.54343 3.65617 2.35718 4.12503 2.35718H8.44646ZM17.875 2.35718C18.3439 2.35718 18.7936 2.54343 19.1251 2.87497C19.4566 3.20651 19.6429 3.65617 19.6429 4.12503V8.44646C19.6429 8.91533 19.4566 9.36499 19.1251 9.69653C18.7936 10.0281 18.3439 10.2143 17.875 10.2143H13.5536C13.0847 10.2143 12.6351 10.0281 12.3035 9.69653C11.972 9.36499 11.7857 8.91533 11.7857 8.44646V4.12503C11.7857 3.65617 11.972 3.20651 12.3035 2.87497C12.6351 2.54343 13.0847 2.35718 13.5536 2.35718H17.875ZM8.44646 3.53575H4.12503C3.96875 3.53575 3.81886 3.59783 3.70835 3.70835C3.59783 3.81886 3.53575 3.96875 3.53575 4.12503V8.44646C3.53575 8.77175 3.79975 9.03575 4.12503 9.03575H8.44646C8.60275 9.03575 8.75264 8.97366 8.86315 8.86315C8.97366 8.75264 9.03575 8.60275 9.03575 8.44646V4.12503C9.03575 3.96875 8.97366 3.81886 8.86315 3.70835C8.75264 3.59783 8.60275 3.53575 8.44646 3.53575ZM17.875 3.53575H13.5536C13.3973 3.53575 13.2474 3.59783 13.1369 3.70835C13.0264 3.81886 12.9643 3.96875 12.9643 4.12503V8.44646C12.9643 8.77175 13.2283 9.03575 13.5536 9.03575H17.875C18.0313 9.03575 18.1812 8.97366 18.2917 8.86315C18.4022 8.75264 18.4643 8.60275 18.4643 8.44646V4.12503C18.4643 3.96875 18.4022 3.81886 18.2917 3.70835C18.1812 3.59783 18.0313 3.53575 17.875 3.53575Z" fill="#243647"/>
</svg>
