<svg width="32" height="32" viewBox="0 0 32 32" fill="none" xmlns="http://www.w3.org/2000/svg">
<g clip-path="url(#clip0_25_340)">
<path fill-rule="evenodd" clip-rule="evenodd" d="M17.25 11.625V20.375C17.25 20.7202 16.9702 21 16.625 21C16.2798 21 16 20.7202 16 20.375V11.625C16 11.2798 16.2798 11 16.625 11C16.9702 11 17.25 11.2798 17.25 11.625ZM23.5 11H19.75C19.4048 11 19.125 11.2798 19.125 11.625V20.375C19.125 20.7202 19.4048 21 19.75 21C20.0952 21 20.375 20.7202 20.375 20.375V16.625H22.875C23.2202 16.625 23.5 16.3452 23.5 16C23.5 15.6548 23.2202 15.375 22.875 15.375H20.375V12.25H23.5C23.8452 12.25 24.125 11.9702 24.125 11.625C24.125 11.2798 23.8452 11 23.5 11ZM13.5 15.375H11.625C11.2798 15.375 11 15.6548 11 16C11 16.3452 11.2798 16.625 11.625 16.625H12.875V17.875C12.875 18.9105 12.0355 19.75 11 19.75C9.96447 19.75 9.125 18.9105 9.125 17.875V14.125C9.125 13.0895 9.96447 12.25 11 12.25C11.8742 12.25 12.6883 12.8547 12.8945 13.6562C12.9808 13.9906 13.3219 14.1918 13.6562 14.1055C13.9906 14.0192 14.1918 13.6781 14.1055 13.3438C13.7555 11.9859 12.45 11 11 11C9.27411 11 7.875 12.3991 7.875 14.125V17.875C7.875 19.6009 9.27411 21 11 21C12.7259 21 14.125 19.6009 14.125 17.875V16C14.125 15.6548 13.8452 15.375 13.5 15.375Z" fill="#94ADC7"/>
</g>
<defs>
<clipPath id="clip0_25_340">
<rect width="20" height="20" fill="white" transform="translate(6 6)"/>
</clipPath>
</defs>
</svg>
