<svg width="22" height="19" viewBox="0 0 22 19" fill="none" xmlns="http://www.w3.org/2000/svg">
<path fill-rule="evenodd" clip-rule="evenodd" d="M15.6875 0.65625C13.7516 0.65625 12.0566 1.48875 11 2.89594C9.94344 1.48875 8.24844 0.65625 6.3125 0.65625C3.10384 0.659867 0.503617 3.26009 0.5 6.46875C0.5 13.0312 10.2303 18.3431 10.6447 18.5625C10.8665 18.6818 11.1335 18.6818 11.3553 18.5625C11.7697 18.3431 21.5 13.0312 21.5 6.46875C21.4964 3.26009 18.8962 0.659867 15.6875 0.65625ZM11 17.0438C9.28813 16.0463 2 11.5022 2 6.46875C2.0031 4.08831 3.93206 2.15935 6.3125 2.15625C8.13594 2.15625 9.66687 3.1275 10.3062 4.6875C10.4218 4.96884 10.6959 5.15252 11 5.15252C11.3041 5.15252 11.5782 4.96884 11.6938 4.6875C12.3331 3.12469 13.8641 2.15625 15.6875 2.15625C18.0679 2.15935 19.9969 4.08831 20 6.46875C20 11.4947 12.71 16.0453 11 17.0438Z" fill="#94ADC7"/>
</svg>
