<svg width="20" height="21" viewBox="0 0 20 21" fill="none" xmlns="http://www.w3.org/2000/svg">
<g clip-path="url(#clip0_25_304)">
<path fill-rule="evenodd" clip-rule="evenodd" d="M13.9062 3C12.293 3 10.8805 3.69375 10 4.86641C9.11953 3.69375 7.70703 3 6.09375 3C3.41987 3.00301 1.25301 5.16987 1.25 7.84375C1.25 13.3125 9.35859 17.7391 9.70391 17.9219C9.88878 18.0213 10.1112 18.0213 10.2961 17.9219C10.6414 17.7391 18.75 13.3125 18.75 7.84375C18.747 5.16987 16.5801 3.00301 13.9062 3ZM10 16.6562C8.57344 15.825 2.5 12.0383 2.5 7.84375C2.50258 5.86005 4.11005 4.25258 6.09375 4.25C7.61328 4.25 8.88906 5.05937 9.42188 6.35938C9.51818 6.59382 9.74654 6.7469 10 6.7469C10.2535 6.7469 10.4818 6.59382 10.5781 6.35938C11.1109 5.05703 12.3867 4.25 13.9062 4.25C15.89 4.25258 17.4974 5.86005 17.5 7.84375C17.5 12.032 11.425 15.8242 10 16.6562Z" fill="white"/>
</g>
<defs>
<clipPath id="clip0_25_304">
<rect width="20" height="20" fill="white" transform="translate(0 0.5)"/>
</clipPath>
</defs>
</svg>
