<svg width="19" height="19" viewBox="0 0 19 19" fill="none" xmlns="http://www.w3.org/2000/svg">
<path fill-rule="evenodd" clip-rule="evenodd" d="M8.76356 0.43023C8.9589 0.234948 9.2238 0.125244 9.50002 0.125244C9.77623 0.125244 10.0411 0.234948 10.2365 0.43023L16.4865 6.68023L18.5698 8.76356C18.7596 8.96002 18.8645 9.22315 18.8622 9.49627C18.8598 9.76939 18.7503 10.0307 18.5571 10.2238C18.364 10.4169 18.1027 10.5265 17.8296 10.5288C17.5565 10.5312 17.2934 10.4262 17.0969 10.2365L16.7917 9.93127V16.7917C16.7917 17.3442 16.5722 17.8741 16.1815 18.2648C15.7908 18.6555 15.2609 18.875 14.7084 18.875H11.5834C11.3071 18.875 11.0421 18.7653 10.8468 18.5699C10.6514 18.3746 10.5417 18.1096 10.5417 17.8334V14.7084H8.45835V17.8334C8.45835 18.1096 8.3486 18.3746 8.15325 18.5699C7.9579 18.7653 7.69295 18.875 7.41668 18.875H4.29168C3.73915 18.875 3.20925 18.6555 2.81854 18.2648C2.42784 17.8741 2.20835 17.3442 2.20835 16.7917V9.93127L1.90314 10.2365C1.70668 10.4262 1.44355 10.5312 1.17043 10.5288C0.897311 10.5265 0.636048 10.4169 0.442915 10.2238C0.249781 10.0307 0.14023 9.76939 0.137857 9.49627C0.135483 9.22315 0.240477 8.96002 0.430225 8.76356L2.51356 6.68023L8.76356 0.43023Z" fill="#243647"/>
</svg>
