<svg width="32" height="32" viewBox="0 0 32 32" fill="none" xmlns="http://www.w3.org/2000/svg">
<g clip-path="url(#clip0_25_355)">
<path fill-rule="evenodd" clip-rule="evenodd" d="M21.625 10.375C21.625 10.7202 21.3452 11 21 11H18.3258L14.9922 21H17.25C17.5952 21 17.875 21.2798 17.875 21.625C17.875 21.9702 17.5952 22.25 17.25 22.25H11C10.6548 22.25 10.375 21.9702 10.375 21.625C10.375 21.2798 10.6548 21 11 21H13.6742L17.0078 11H14.75C14.4048 11 14.125 10.7202 14.125 10.375C14.125 10.0298 14.4048 9.75 14.75 9.75H21C21.3452 9.75 21.625 10.0298 21.625 10.375Z" fill="#94ADC7"/>
</g>
<defs>
<clipPath id="clip0_25_355">
<rect width="20" height="20" fill="white" transform="translate(6 6)"/>
</clipPath>
</defs>
</svg>
