<svg width="26" height="26" viewBox="0 0 26 26" fill="none" xmlns="http://www.w3.org/2000/svg">
<path d="M5.41667 20.5833H6.96042L17.55 9.99375L16.0062 8.45L5.41667 19.0396V20.5833ZM3.25 22.75V18.1458L17.55 3.87292C17.7667 3.67431 18.0061 3.52083 18.2682 3.4125C18.5304 3.30417 18.8056 3.25 19.0937 3.25C19.3819 3.25 19.6618 3.30417 19.9333 3.4125C20.2049 3.52083 20.4396 3.68333 20.6375 3.9L22.1271 5.41667C22.3437 5.61528 22.5019 5.85 22.6016 6.12083C22.7013 6.39167 22.7507 6.6625 22.75 6.93333C22.75 7.22222 22.7005 7.49775 22.6016 7.75992C22.5026 8.02208 22.3445 8.26114 22.1271 8.47708L7.85417 22.75H3.25ZM16.7646 9.23542L16.0062 8.45L17.55 9.99375L16.7646 9.23542Z" fill="#243647"/>
</svg>
