<svg width="18" height="21" viewBox="0 0 18 21" fill="none" xmlns="http://www.w3.org/2000/svg">
<path d="M9 20.9167C9.6193 20.9175 10.2235 20.7173 10.7285 20.344C11.2335 19.9706 11.6143 19.4426 11.818 18.8334H6.182C6.38566 19.4426 6.76648 19.9706 7.27151 20.344C7.77654 20.7173 8.3807 20.9175 9 20.9167ZM16 13.1938V8.41671C16 5.06567 13.815 2.24275 10.855 1.39379C10.562 0.625041 9.846 0.083374 9 0.083374C8.154 0.083374 7.438 0.625041 7.145 1.39379C4.185 2.24379 2 5.06567 2 8.41671V13.1938L0.293001 14.9719C0.199958 15.0685 0.126171 15.1833 0.0758854 15.3097C0.0256001 15.4361 -0.000189449 15.5716 1.04767e-06 15.7084V16.75C1.04767e-06 17.0263 0.105358 17.2913 0.292894 17.4866C0.480431 17.682 0.734785 17.7917 1 17.7917H17C17.2652 17.7917 17.5196 17.682 17.7071 17.4866C17.8946 17.2913 18 17.0263 18 16.75V15.7084C18.0002 15.5716 17.9744 15.4361 17.9241 15.3097C17.8738 15.1833 17.8 15.0685 17.707 14.9719L16 13.1938Z" fill="#243647"/>
</svg>
