<svg width="16" height="17" viewBox="0 0 16 17" fill="none" xmlns="http://www.w3.org/2000/svg">
<path fill-rule="evenodd" clip-rule="evenodd" d="M15.3281 12.2453C14.8945 11.4984 14.25 9.38516 14.25 6.625C14.25 3.17322 11.4518 0.375 8 0.375C4.54822 0.375 1.75 3.17322 1.75 6.625C1.75 9.38594 1.10469 11.4984 0.671094 12.2453C0.445722 12.6318 0.444082 13.1092 0.666796 13.4973C0.889509 13.8853 1.30261 14.1247 1.75 14.125H4.93828C5.23556 15.5796 6.51529 16.6243 8 16.6243C9.48471 16.6243 10.7644 15.5796 11.0617 14.125H14.25C14.6972 14.1244 15.1101 13.8849 15.3326 13.4969C15.5551 13.109 15.5534 12.6317 15.3281 12.2453ZM8 15.375C7.20562 15.3748 6.49761 14.8739 6.23281 14.125H9.76719C9.50239 14.8739 8.79438 15.3748 8 15.375ZM1.75 12.875C2.35156 11.8406 3 9.44375 3 6.625C3 3.86358 5.23858 1.625 8 1.625C10.7614 1.625 13 3.86358 13 6.625C13 9.44141 13.6469 11.8383 14.25 12.875H1.75Z" fill="white"/>
</svg>
