<svg width="20" height="21" viewBox="0 0 20 21" fill="none" xmlns="http://www.w3.org/2000/svg">
<g clip-path="url(#clip0_25_314)">
<path fill-rule="evenodd" clip-rule="evenodd" d="M14.375 3H5.625C4.93464 3 4.375 3.55964 4.375 4.25V18C4.37511 18.2271 4.49846 18.4364 4.69716 18.5464C4.89586 18.6565 5.13863 18.6501 5.33125 18.5297L10 15.6117L14.6695 18.5297C14.8621 18.6497 15.1046 18.6558 15.303 18.5458C15.5015 18.4358 15.6247 18.2269 15.625 18V4.25C15.625 3.55964 15.0654 3 14.375 3ZM14.375 16.8727L10.3305 14.3453C10.1278 14.2186 9.87064 14.2186 9.66797 14.3453L5.625 16.8727V4.25H14.375V16.8727Z" fill="white"/>
</g>
<defs>
<clipPath id="clip0_25_314">
<rect width="20" height="20" fill="white" transform="translate(0 0.5)"/>
</clipPath>
</defs>
</svg>
