<svg width="16" height="4" viewBox="0 0 16 4" fill="none" xmlns="http://www.w3.org/2000/svg">
<path fill-rule="evenodd" clip-rule="evenodd" d="M9.125 2C9.125 2.62132 8.62132 3.125 8 3.125C7.37868 3.125 6.875 2.62132 6.875 2C6.875 1.37868 7.37868 0.875 8 0.875C8.62132 0.875 9.125 1.37868 9.125 2ZM14.375 0.875C13.7537 0.875 13.25 1.37868 13.25 2C13.25 2.62132 13.7537 3.125 14.375 3.125C14.9963 3.125 15.5 2.62132 15.5 2C15.5 1.37868 14.9963 0.875 14.375 0.875ZM1.625 0.875C1.00368 0.875 0.5 1.37868 0.5 2C0.5 2.62132 1.00368 3.125 1.625 3.125C2.24632 3.125 2.75 2.62132 2.75 2C2.75 1.37868 2.24632 0.875 1.625 0.875Z" fill="white"/>
</svg>
