<svg width="24" height="25" viewBox="0 0 24 25" fill="none" xmlns="http://www.w3.org/2000/svg">
<g clip-path="url(#clip0_25_403)">
<path fill-rule="evenodd" clip-rule="evenodd" d="M21.3113 3.345C20.9272 2.96117 20.3657 2.81488 19.8431 2.9625H19.8291L1.83469 8.4225C1.23493 8.59498 0.804617 9.12079 0.754171 9.74282C0.703725 10.3648 1.04368 10.9531 1.60781 11.22L9.63469 15.0216L13.4362 23.0484C13.6813 23.5733 14.2089 23.9081 14.7881 23.9062C14.8313 23.9062 14.8744 23.9044 14.9175 23.9006C15.5375 23.8504 16.0609 23.4201 16.23 22.8216L21.6863 4.82719C21.6863 4.8225 21.6863 4.81781 21.6863 4.81313C21.8358 4.29194 21.6924 3.73063 21.3113 3.345ZM14.7966 22.3922L14.7919 22.4053L11.1019 14.6156L15.5306 10.1859C15.8108 9.89106 15.8048 9.42663 15.5172 9.13903C15.2296 8.85142 14.7652 8.84548 14.4703 9.12562L10.0406 13.5544L2.25 9.86438H2.26312L20.25 4.40625L14.7966 22.3922Z" fill="#94ADC7"/>
</g>
<defs>
<clipPath id="clip0_25_403">
<rect width="24" height="24" fill="white" transform="translate(0 0.65625)"/>
</clipPath>
</defs>
</svg>
