<svg width="17" height="16" viewBox="0 0 17 16" fill="none" xmlns="http://www.w3.org/2000/svg">
<path fill-rule="evenodd" clip-rule="evenodd" d="M15.7594 4.23203L12.268 0.741406C12.0335 0.506924 11.7156 0.375189 11.384 0.375189C11.0524 0.375189 10.7344 0.506924 10.5 0.741406L0.866406 10.375C0.630923 10.6086 0.49894 10.9269 0.5 11.2586V14.75C0.5 15.4404 1.05964 16 1.75 16H5.24141C5.57311 16.0011 5.89139 15.8691 6.125 15.6336L12.6617 9.09766L12.9336 10.1836L10.0586 13.0578C9.81438 13.3018 9.81421 13.6976 10.0582 13.9418C10.3022 14.186 10.698 14.1862 10.9422 13.9422L14.0672 10.8172C14.2227 10.662 14.2852 10.4366 14.232 10.2234L13.693 8.06641L15.7594 6C15.9939 5.76557 16.1256 5.44759 16.1256 5.11602C16.1256 4.78445 15.9939 4.46646 15.7594 4.23203ZM1.75 12.5086L3.99141 14.75H1.75V12.5086ZM5.5 14.4914L2.00859 11L8.625 4.38359L12.1164 7.875L5.5 14.4914ZM13 6.99141L9.50937 3.5L11.3844 1.625L14.875 5.11641L13 6.99141Z" fill="white"/>
</svg>
